<svg width="85" height="85" viewBox="0 0 85 85" fill="none" xmlns="http://www.w3.org/2000/svg">
<rect y="42.1138" width="59.5578" height="59.5578" rx="23.1293" transform="rotate(-45 0 42.1138)" fill="#68F3A8"/>
<path d="M33.1024 24C28.0604 24 24 28.152 24 33.1941V49.3108C24 51.9236 26.1181 54.0417 28.731 54.0417H42.2143V33.1071C42.2143 30.691 41.2541 28.3738 39.5452 26.6657C37.8362 24.9577 35.5186 23.9987 33.1024 24Z" fill="#0E1527"/>
<path d="M51.3166 24C46.2746 24 42.2142 28.152 42.2142 33.1941V54.0417H55.6975C58.3104 54.0417 60.4285 51.9236 60.4285 49.3108V33.1071C60.4285 30.691 59.4684 28.3738 57.7594 26.6657C56.0505 24.9577 53.7328 23.9987 51.3166 24Z" fill="#0E1527"/>
<path d="M42.2191 33.1071C39.8029 33.1059 37.4852 34.0648 35.7763 35.7729C34.0673 37.4809 33.1072 39.7981 33.1072 42.2143C33.1074 42.5609 33.1272 42.9072 33.1663 43.2515V55.0931C33.1663 57.7059 35.2844 59.824 37.8973 59.824H46.5905C49.2033 59.824 51.3215 57.7059 51.3215 55.0931V42.3012C51.3215 37.2591 47.2611 33.1071 42.2191 33.1071Z" fill="#F4DC51"/>
</svg>
