<svg width="32" height="32" viewBox="0 0 32 32" fill="none" xmlns="http://www.w3.org/2000/svg">
<path fill-rule="evenodd" clip-rule="evenodd" d="M16 32C24.8366 32 32 24.8366 32 16C32 7.16344 24.8366 0 16 0C7.16344 0 0 7.16344 0 16C0 24.8366 7.16344 32 16 32Z" fill="#101326"/>
<path d="M12.3418 16.8485L17.0085 21.6484C17.2364 21.8828 17.5348 22 17.8333 22C18.1319 22 18.4303 21.8828 18.6582 21.6484C19.1139 21.18 19.1139 20.4199 18.6582 19.9515L14.8165 16.0001L18.6582 12.0485C19.1139 11.5801 19.1139 10.82 18.6582 10.3516C18.2024 9.8828 17.4642 9.8828 17.0084 10.3516L12.3417 15.1515C11.8861 15.6199 11.8861 16.3802 12.3418 16.8485Z" fill="white"/>
</svg>
