<svg width="21" height="22" viewBox="0 0 21 22" fill="none" xmlns="http://www.w3.org/2000/svg">
<path d="M9.89995 20.35C15.1191 20.35 19.35 16.1191 19.35 10.9C19.35 5.68086 15.1191 1.44995 9.89995 1.44995C4.68086 1.44995 0.449951 5.68086 0.449951 10.9C0.449951 16.1191 4.68086 20.35 9.89995 20.35Z" fill="#10C664" stroke="white" stroke-width="2.7"/>
<path fill-rule="evenodd" clip-rule="evenodd" d="M12.7427 9.17362L9.1342 13.1586C9.10225 13.1943 9.05878 13.2143 9.01342 13.2143C8.96797 13.2143 8.9245 13.1943 8.89255 13.1586L7.05767 11.1323C7.02545 11.097 7.00732 11.049 7.00732 10.9988C7.00732 10.9487 7.02545 10.9007 7.05767 10.8654L7.29596 10.6022C7.32793 10.5666 7.37143 10.5467 7.41682 10.5467C7.4622 10.5467 7.50571 10.5666 7.53767 10.6022L9.01171 12.2301L12.2627 8.63977C12.33 8.56767 12.437 8.56767 12.5044 8.63977L12.7427 8.90669C12.7749 8.94199 12.7931 8.99004 12.7931 9.04016C12.7931 9.09028 12.7749 9.13834 12.7427 9.17362Z" fill="white" stroke="white" stroke-width="0.9"/>
</svg>
