<svg width="66" height="66" viewBox="0 0 66 66" fill="none" xmlns="http://www.w3.org/2000/svg">
<rect width="66" height="66" rx="24" fill="#055DE0"/>
<mask id="mask0" mask-type="alpha" maskUnits="userSpaceOnUse" x="0" y="0" width="66" height="66">
<rect width="66" height="66" rx="24" fill="white"/>
</mask>
<g mask="url(#mask0)">
<path fill-rule="evenodd" clip-rule="evenodd" d="M23.1317 15H33.5C43.7167 15 52 23.2833 52 33.5C52 43.7167 43.7174 52 33.5 52C23.2825 52 15 43.7167 15 33.5C15.0003 31.8517 15.2205 30.2109 15.6548 28.6208L17.1056 25.9774H33.5C37.0304 25.9756 40.0865 28.4307 40.8456 31.8785C41.6047 35.3264 39.8622 38.8379 36.6574 40.3189C33.4527 41.7998 29.6491 40.8512 27.5152 38.0386C25.3813 35.2261 25.492 31.3076 27.7814 28.6201H24.3515C22.1588 32.7311 22.9783 37.7999 26.3547 41.0105C29.731 44.2211 34.8346 44.7846 38.8301 42.388C42.8256 39.9913 44.7312 35.2234 43.4883 30.7331C42.2453 26.2428 38.1592 23.1334 33.5 23.1325H18.6682L20.1183 20.4906H33.5C39.2211 20.4907 44.2708 24.228 45.9427 29.6994C47.6145 35.1708 45.5161 41.0923 40.7722 44.2901C36.0282 47.4879 29.752 47.2117 25.3074 43.6094C20.8628 40.0071 19.2928 33.9242 21.4389 28.6208H18.4115C17.9014 30.1969 17.6419 31.8434 17.6426 33.5C17.6426 42.2571 24.7429 49.3574 33.5 49.3574C42.2571 49.3574 49.3566 42.2578 49.3566 33.5C49.3566 24.7422 42.2549 17.6426 33.5 17.6426H21.6809L23.1119 15.036L23.1317 15ZM38.3792 33.5C38.3792 30.8053 36.1947 28.6208 33.5 28.6208C30.8053 28.6208 28.6208 30.8053 28.6208 33.5C28.6208 36.1947 30.8053 38.3792 33.5 38.3792C36.1947 38.3792 38.3792 36.1947 38.3792 33.5Z" fill="white"/>
</g>
</svg>
