<svg width="66" height="66" viewBox="0 0 66 66" fill="none" xmlns="http://www.w3.org/2000/svg">
<rect width="66" height="66" rx="24" fill="#D94F00"/>
<mask id="mask0" mask-type="alpha" maskUnits="userSpaceOnUse" x="0" y="0" width="66" height="66">
<rect width="66" height="66" rx="24" fill="white"/>
</mask>
<g mask="url(#mask0)">
<path fill-rule="evenodd" clip-rule="evenodd" d="M7 7H59.1053V59.733H7V7Z" fill="#D94F00"/>
<path fill-rule="evenodd" clip-rule="evenodd" d="M36.6453 17.2255H50.0026V30.6097H36.6453V17.2255ZM20.4972 37.3798V38.6891H22.7993V45.6162H24.3867V38.6362H26.5301V37.3269L20.4972 37.3807V37.3798ZM19.3116 39.003V37.6937C18.0381 37.1179 16.5736 36.9439 15.0741 37.6937C12.615 38.7932 12.5271 44.2378 14.9871 45.3023C16.3996 46.0179 19.3456 45.6861 19.6425 45.0574V40.7473H16.7135V41.8818H18.0031V44.1508C13.7656 46.2099 12.9809 36.3152 19.3116 39.003ZM29.112 41.8119H30.6285C31.8841 41.8648 32.2159 44.2378 30.5765 44.2198H29.112V41.8119ZM29.112 38.4793H30.6285C31.8841 38.7062 31.4312 40.5733 30.5765 40.6254H29.112V38.4793ZM27.5426 37.2058V45.5462H31.7101C33.8374 44.7785 33.9253 41.4809 31.7101 41.1312C33.7504 40.9052 33.8553 37.1529 30.3326 37.1529L27.5426 37.2058ZM34.901 39.5438V40.7823C36.0166 40.4684 38.4407 39.5958 38.2139 41.446C36.0866 41.306 34.6391 41.6899 34.3952 43.0154C33.9943 45.878 37.0632 46.1569 38.3538 44.7436V45.4242H39.8183V40.3985C39.4524 38.7752 37.0292 38.5663 34.901 39.5438ZM36.1386 42.7724C36.4704 42.3356 37.5341 42.3526 38.2488 42.5625V43.662C37.0812 44.9175 35.1978 44.3427 36.1395 42.7715L36.1386 42.7724ZM42.8531 41.0271C43.2369 40.6083 45.2772 39.8227 45.5911 41.0271V45.4592H47.2296V40.7653C46.8807 38.8102 45.0144 38.4613 42.7482 39.7877V39.055H41.1967V45.4942H42.8352L42.8531 41.0271ZM52.3737 38.9851L50.2295 41.8639L52.4966 45.4063L54.4669 45.3543L51.9738 41.9518L54.223 39.0371L52.3746 38.9851H52.3737ZM48.4511 36.8731H50.0725V45.4063H48.4502V36.874L48.4511 36.8731Z" fill="white"/>
<path fill-rule="evenodd" clip-rule="evenodd" d="M36.6453 17.2255H50.0025V30.6097H36.6453V17.2255Z" fill="white"/>
</g>
</svg>
